<svg width="36" height="22" viewBox="0 0 36 22" fill="none" xmlns="http://www.w3.org/2000/svg">
<path d="M16.69 16.51C16.69 17.57 16.42 18.52 15.88 19.36C15.34 20.18 14.61 20.83 13.69 21.31C12.79 21.77 11.8 22 10.72 22H0.67V0.699999H10.93C11.93 0.699999 12.79 0.969999 13.51 1.51C14.25 2.03 14.81 2.71 15.19 3.55C15.59 4.37 15.79 5.23 15.79 6.13C15.79 7.19 15.52 8.17 14.98 9.07C14.44 9.97 13.69 10.64 12.73 11.08C13.95 11.44 14.91 12.11 15.61 13.09C16.33 14.07 16.69 15.21 16.69 16.51ZM14.59 16.15C14.59 15.43 14.43 14.77 14.11 14.17C13.79 13.55 13.35 13.05 12.79 12.67C12.25 12.29 11.63 12.1 10.93 12.1H2.77V20.17H10.72C11.44 20.17 12.09 19.98 12.67 19.6C13.25 19.22 13.71 18.73 14.05 18.13C14.41 17.51 14.59 16.85 14.59 16.15ZM2.77 2.53V10.39H10.09C10.79 10.39 11.41 10.21 11.95 9.85C12.49 9.47 12.92 8.98 13.24 8.38C13.56 7.78 13.72 7.14 13.72 6.46C13.72 5.74 13.57 5.09 13.27 4.51C12.97 3.91 12.56 3.43 12.04 3.07C11.52 2.71 10.93 2.53 10.27 2.53H2.77ZM35.4189 2.56H27.8289V22H25.7289V2.56H18.1389V0.699999H35.4189V2.56Z" fill="white"/>
</svg>
